<?xml version="1.0" encoding="utf-8"?>
<!-- Generator: Adobe Illustrator 22.1.0, SVG Export Plug-In . SVG Version: 6.00 Build 0)  -->
<svg version="1.1" id="图层_1" xmlns="http://www.w3.org/2000/svg" xmlns:xlink="http://www.w3.org/1999/xlink" x="0px" y="0px"
	 viewBox="0 0 200 200" style="enable-background:new 0 0 200 200;" xml:space="preserve">
<path d="M100.1,37.8c-17.6,0-31.9,14.1-31.9,31.3c0,17.3,14.3,31.3,31.9,31.3c17.6,0,31.9-14.1,31.9-31.3
	C132,51.9,117.7,37.8,100.1,37.8 M100.1,86.6c-9.8,0-17.8-7.8-17.8-17.5c0-9.6,8-17.5,17.8-17.5c9.8,0,17.7,7.8,17.7,17.5
	C117.8,78.8,109.9,86.6,100.1,86.6 M174.8,73.8c0-40.5-33.5-73.4-74.7-73.4c-41.2,0-74.7,32.9-74.7,73.4c0,31.7,46,95.7,65.8,121.7
	c2.1,2.7,5.4,4.4,8.9,4.4c3.5,0,6.8-1.6,8.9-4.4C128.8,169.5,174.8,105.6,174.8,73.8 M101.3,184.4l-1.2,1.6l-1.2-1.6
	c-37.4-49.6-60.6-92-60.6-110.6c0-33.5,27.7-60.7,61.8-60.7c34.1,0,61.8,27.2,61.8,60.7C161.9,92.4,138.6,134.8,101.3,184.4"/>
</svg>
