<?xml version="1.0" encoding="utf-8"?>
<!-- Generator: Adobe Illustrator 22.1.0, SVG Export Plug-In . SVG Version: 6.00 Build 0)  -->
<svg version="1.1" id="图层_1" xmlns="http://www.w3.org/2000/svg" xmlns:xlink="http://www.w3.org/1999/xlink" x="0px" y="0px"
	 viewBox="0 0 1024 768" style="enable-background:new 0 0 1024 768;" xml:space="preserve">
<g>
	<g>
		<defs>
			<rect id="SVGID_1_" x="120" y="-25" width="783.8" height="819.8"/>
		</defs>
		<clipPath id="SVGID_2_">
			<use xlink:href="#SVGID_1_"  style="overflow:visible;"/>
		</clipPath>
		<path style="clip-path:url(#SVGID_2_);" d="M511.7-24.3c-216.4,0-391.8,171.7-391.8,383.4C119.9,553,267,713.3,457.9,739
			c-1.7,10.9-4.6,29.4-6.1,42.9c0,0.3-0.1,0.6-0.1,0.9c0,0.2,0,0.5,0,0.7c0,5.7,4.6,10.3,10.3,10.3c0.8,0,1.5-0.1,2.2-0.2
			c1-0.4,2.1-0.8,3.2-1.3c32-13,104.9-43.7,157.5-65.9c161.2-47.5,278.6-193.9,278.6-367.2C903.5,147.4,728.1-24.3,511.7-24.3
			L511.7-24.3z M598.5,694.2l-105.1,46.1c-0.1,0.1-0.2,0.1-0.3,0.1l-0.3,0.1l0,0c-0.3-0.1-0.5-0.3-0.6-0.6v-36.8
			c-183-12.6-327.5-161.9-327.5-344.2C164.6,168.5,316.9,14,511.7,14s352.6,154.5,352.6,345.1C864.3,521.3,752.5,657.2,598.5,694.2
			L598.5,694.2z M655.6,467c-5.9,0-10.9,3.6-13.1,8.7c-18.3,28.5-69,54.4-130.5,54.4c-61.3,0-112.4-26-131.4-55.9l-0.1,0
			c-2.4-4.3-7-7.2-12.3-7.2c-7.8,0-14.1,6.3-14.1,14.1c0,4.3,1.9,8.1,4.9,10.7c24,34.9,82.4,62.3,151.9,62.3
			c69.9,0,130.7-27.7,154.6-62.9c2.6-2.6,4.2-6.1,4.2-10.1C669.7,473.3,663.4,467,655.6,467L655.6,467z M655.6,467"/>
	</g>
</g>
</svg>
