<?xml version="1.0" encoding="utf-8"?>
<!-- Generator: Adobe Illustrator 22.1.0, SVG Export Plug-In . SVG Version: 6.00 Build 0)  -->
<svg version="1.1" id="图层_1" xmlns="http://www.w3.org/2000/svg" xmlns:xlink="http://www.w3.org/1999/xlink" x="0px" y="0px"
	 viewBox="0 0 866.3 720" style="enable-background:new 0 0 866.3 720;" xml:space="preserve">
<g>
	<path d="M820.4,286.9c27-7.3,45.9-31.6,45.9-58.9v-71.7C866.3,70.1,796.2,0,710,0H156.3C70.1,0,0,70.1,0,156.3V228
		c0,27.4,18.9,51.6,45.9,58.9c32.9,9,55.8,38.9,55.8,73s-22.9,64-55.8,73C18.9,440.2,0,464.4,0,491.8v71.7
		C0,649.8,70.1,720,156.3,720H710c86.2,0,156.3-70.1,156.3-156.3v-71.8c0-27.4-18.9-51.6-45.9-58.9c-32.9-9-55.8-38.9-55.8-73
		C764.6,325.8,787.5,295.9,820.4,286.9L820.4,286.9z M806.8,483.2c3.7,1,7.4,4.1,7.4,8.6v71.7C814.1,621,767.5,667.6,710,667.7
		H156.3C98.8,667.6,52.2,621,52.1,563.5v-71.7c0-4.6,3.7-7.6,7.4-8.6c55.7-15.1,94.3-65.6,94.3-123.3s-38.6-108.2-94.3-123.3
		c-3.7-1-7.4-4.1-7.4-8.6v-71.7C52.2,98.8,98.8,52.2,156.3,52.1H710c57.5,0.1,104.1,46.7,104.2,104.2V228c0,4.6-3.7,7.6-7.4,8.6
		c-55.7,15.1-94.3,65.6-94.3,123.3S751.1,468.1,806.8,483.2L806.8,483.2z"/>
	<path d="M522.5,172.9l-89.4,104.4l-89.4-104.4c-6-7.1-15.4-10.5-24.6-8.8s-16.8,8.2-19.9,17s-1.2,18.6,4.9,25.7L392,309.4h-48.7
		c-14.4,0-26,11.7-26,26c0,14.4,11.7,26,26,26H407V405h-63.7c-14.4,0-26,11.7-26,26c0,14.4,11.7,26,26,26H407v73
		c0,14.4,11.7,26,26,26c14.4,0,26-11.7,26-26v-72.8h63.7c14.4,0,26-11.7,26-26.1s-11.7-26-26-26H459v-43.5h63.7
		c14.4,0,26-11.7,26-26c0-14.4-11.7-26-26-26h-48.6L562,207c6.1-7.1,8-16.9,4.9-25.7s-10.7-15.3-19.9-17
		C538,162.4,528.6,165.8,522.5,172.9L522.5,172.9z"/>
</g>
</svg>
