<?xml version="1.0" encoding="utf-8"?>
<!-- Generator: Adobe Illustrator 22.1.0, SVG Export Plug-In . SVG Version: 6.00 Build 0)  -->
<svg version="1.1" id="图层_1" xmlns="http://www.w3.org/2000/svg" xmlns:xlink="http://www.w3.org/1999/xlink" x="0px" y="0px"
	 viewBox="0 0 200 200" style="enable-background:new 0 0 200 200;" xml:space="preserve">
<path d="M128.3,182.5c-1.7,0-3.3-0.8-4.2-2.1L110,161.7H30c-10.4,0-18.8-7.5-18.8-17.1V38.3c0-9.6,8.3-17.1,18.8-17.1h140
	c10.4,0,18.8,7.5,18.8,17.1V145c0,9.6-8.3,17.1-18.8,17.1h-25.4l-12.1,18.3C131.7,181.7,130,182.5,128.3,182.5L128.3,182.5z
	 M30,31.7c-4.6,0-8.3,2.9-8.3,6.7V145c0,3.8,3.8,6.7,8.3,6.7h82.5c1.7,0,3.3,0.8,4.2,2.1l11.2,15l9.6-14.6c0.8-1.7,2.5-2.5,4.2-2.5
	h27.9c4.6,0,8.3-2.9,8.3-6.7V38.3c0-3.8-3.8-6.7-8.3-6.7H30z"/>
<path d="M50.8,60h98.8v10.8H50.8V60z M50.8,96.3h98.8v10.8H50.8V96.3z"/>
</svg>
