<?xml version="1.0" encoding="utf-8"?>
<!-- Generator: Adobe Illustrator 22.1.0, SVG Export Plug-In . SVG Version: 6.00 Build 0)  -->
<svg version="1.1" id="图层_1" xmlns="http://www.w3.org/2000/svg" xmlns:xlink="http://www.w3.org/1999/xlink" x="0px" y="0px"
	 viewBox="0 0 200 200" style="enable-background:new 0 0 200 200;" xml:space="preserve">
<path d="M100,53.1c25.9,0,46.9,21,46.9,46.9s-21,46.9-46.9,46.9s-46.9-21-46.9-46.9S74.1,53.1,100,53.1 M100,43.8
	c-31.1,0-56.3,25.2-56.3,56.3s25.2,56.3,56.3,56.3s56.3-25.2,56.3-56.3S131.1,43.8,100,43.8z"/>
<path d="M113.5,74.7c3.3,2.9,5.1,7.2,4.9,11.6c0.1,3.6-1,7.1-3.1,9.9c-2.1,2.2-4.4,4.3-6.8,6.3c-1.4,1.1-2.6,2.6-3.4,4.2
	c-0.9,1.7-1.3,3.5-1.3,5.4v1.4h-8.7v-1.3c-0.1-2.7,0.5-5.3,1.8-7.7c2.5-3.8,5.6-7.2,9.2-10.1l1.4-1.6c1.4-1.7,2.2-3.8,2.3-5.9
	c0.4-4.6-3-8.7-7.6-9.1c-0.6-0.1-1.2,0-1.8,0c-3.1-0.3-6.1,1-8,3.4c-1.6,2.5-2.4,5.4-2.2,8.3h-8.5c-0.8-9.8,6.5-18.4,16.4-19.2
	c1-0.1,1.9-0.1,2.9,0C105.5,70.2,110,71.7,113.5,74.7L113.5,74.7z M103.7,119.6c1.2,1.1,1.8,2.6,1.7,4.1c0,1.6-0.6,3.1-1.8,4.2
	c-1.2,1-2.7,1.6-4.2,1.6c-1.6,0-3.1-0.6-4.3-1.7c-1.1-1.1-1.7-2.6-1.7-4.2c-0.1-1.6,0.5-3.1,1.7-4.1
	C97.6,117.4,101.3,117.4,103.7,119.6L103.7,119.6z"/>
</svg>
