<svg id="图层_1" data-name="图层 1" xmlns="http://www.w3.org/2000/svg" xmlns:xlink="http://www.w3.org/1999/xlink" viewBox="0 0 821.32 812.8"><defs><clipPath id="clip-path" transform="translate(-100.88 21.92)"><rect x="101" y="-22" width="821.76" height="813.84" style="fill:none"/></clipPath></defs><title>home</title><g style="clip-path:url(#clip-path)"><path d="M915,299.36,525.84-18.08q-15.36-7.68-30.72,0L106,299.36s-5.12,10.24-5.12,15.36c0,15.36,10.24,20.48,20.48,20.48,5.12,0,10.24-5.12,10.24-5.12l46.08-35.84V698.72a91.78,91.78,0,0,0,92.16,92.16H751.12a91.78,91.78,0,0,0,92.16-92.16V294.24l46.08,41s5.12,5.12,10.24,5.12,10.24,0,15.36-5.12l5.12-5.12c5.12-15.36,0-25.6-5.12-30.72ZM592.4,755H428.56V509.28c0-46.08,35.84-81.92,81.92-81.92s81.92,35.84,81.92,81.92ZM802.32,709A45.89,45.89,0,0,1,756.24,755H633.36V509.28c0-71.68-56.32-122.88-122.88-122.88S387.6,437.6,387.6,509.28V755H264.72A45.89,45.89,0,0,1,218.64,709V263.52L510.48,22.88,802.32,263.52Zm0,0" transform="translate(-100.88 21.92)"/></g></svg>