<svg id="图层_1" data-name="图层 1" xmlns="http://www.w3.org/2000/svg" viewBox="0 0 175.16 150.42"><title>payment</title><path d="M155.93,175.21H31.08a18.77,18.77,0,0,1-18.75-18.74V43.53A18.77,18.77,0,0,1,31.08,24.79H156.51a18.77,18.77,0,0,1,18.74,18.74V61.89a6.25,6.25,0,0,1-12.5,0V43.53a6.26,6.26,0,0,0-6.24-6.25H31.08a6.26,6.26,0,0,0-6.25,6.25V156.47a6.24,6.24,0,0,0,6.25,6.24H155.93a6.24,6.24,0,0,0,6.25-6.24V137.15a6.25,6.25,0,1,1,12.49,0v19.32a18.76,18.76,0,0,1-18.74,18.74Z" transform="translate(-12.33 -24.79)"/><path d="M135.1,99.77h0a6.12,6.12,0,0,0-12.23,0h0v0h0a6.12,6.12,0,0,0,12.23,0h0Z" transform="translate(-12.33 -24.79)"/><path d="M176.4,124.63H111.81a11.11,11.11,0,0,1-11.1-11.1V86a11.11,11.11,0,0,1,11.1-11.1H176.4A11.11,11.11,0,0,1,187.5,86v27.58A11.11,11.11,0,0,1,176.4,124.63Zm-63.58-12.11h62.57V87H112.82Z" transform="translate(-12.33 -24.79)"/></svg>