<svg id="图层_1" data-name="图层 1" xmlns="http://www.w3.org/2000/svg" viewBox="0 0 172.86 171.43"><title>product</title><path d="M98.57,88.57c-4.28,0-7.14-1.43-11.43-1.43L27.14,60c-4.28-1.43-5.71-4.29-5.71-7.14s2.86-5.72,7.14-8.57l60-27.15A26.89,26.89,0,0,1,100,14.29c4.29,0,7.14,1.42,11.43,1.42L170,42.86c4.29,1.43,7.14,4.28,7.14,7.14s-2.85,5.71-7.14,8.57L110,85.71C105.71,88.57,102.86,88.57,98.57,88.57ZM31.43,51.43l60,27.14C92.86,80,95.71,80,98.57,80s5.72,0,7.14-1.43l61.43-27.14L105.71,24.29c-1.42,0-4.28-1.43-5.71-1.43-2.86,0-5.71,0-7.14,1.43ZM85.71,185.71c-2.85,0-4.28,0-7.14-1.42L24.29,158.57c-7.15-2.86-11.43-8.57-11.43-14.28V77.14c0-4.28,4.28-8.57,10-8.57,2.85,0,4.28,0,7.14,1.43L82.86,95.71C90,98.57,94.29,104.29,94.29,110v67.14c1.42,5.72-2.86,8.57-8.58,8.57Zm-1.42-10h0L85.71,110c0-1.43-2.85-4.29-5.71-5.71L25.71,78.57H24.29v67.14c0,1.43,2.85,4.29,5.71,5.72Zm30,10q-8.58,0-8.58-8.57V110c0-5.71,4.29-11.43,11.43-14.29L170,70c2.86-1.43,4.29-1.43,7.14-1.43q8.58,0,8.57,8.57v67.15c0,5.71-4.28,11.42-11.42,14.28l-52.86,25.72c-2.86,1.42-4.29,1.42-7.14,1.42Zm60-107.14-52.86,24.29c-4.29,2.85-5.72,5.71-5.72,7.14v67.14h1.43L170,151.43c2.86-1.43,5.71-4.29,5.71-5.72l-1.42-67.14Z" transform="translate(-12.86 -14.29)"/></svg>