<svg id="图层_1" data-name="图层 1" xmlns="http://www.w3.org/2000/svg" viewBox="0 0 178.95 179.06"><title>qrcode</title><path d="M14.8,8.81H86.46c7.29.7,5.53,13.38,5.53,21.6V69.59c0,8.52,1.62,19-4.08,21.37-3.71,1.58-13.71.47-18.52.47h-38c-8.79,0-20.78,2.07-22.13-5.47V14.28A8.22,8.22,0,0,1,14.8,8.81M24.67,25V76h51.7V24.24H24.9c-.27,0-.25.37-.23.72M111,8.81h71.66a7.93,7.93,0,0,1,5.52,6.4V85c-.66,2.91-2.18,5.37-5.06,6.17-4.66,1.31-12.44.24-18,.24H128.32c-5.55,0-13.77,1.15-18.28-.24-6.37-1.95-4.57-14.22-4.57-22.79V31.84c0-9.91-2.21-21.64,5.53-23M120.86,25V76h51.7V24.24H121.09c-.27,0-.25.37-.23.72m-72.64,15c7.21-1.35,12.87,3.46,13,10a10.68,10.68,0,0,1-15.62,9.75c-7.91-4.1-7.39-17.87,2.63-19.73m96.21,0c17-3.12,16.64,23.4,0,20.67-10.58-1.76-10.93-18.66,0-20.67M86,187.87H15a8,8,0,0,1-5.78-5.7V110.68c.7-2.09,2.32-4.53,4.8-5.23,4.71-1.31,12.4-.24,18-.24h36.8c5.43,0,13.36-1.19,18.28.24,6.66,1.93,4.8,14,4.8,22.56v37.75c0,9.26,2,21.29-6,22.11m-61.33-66.5v51h51.7V120.66H24.9c-.27,0-.25.38-.23.71m163.53-9.73v19.94c-.56,6.72-.08,14.49-.23,21.6H136.74V141.54c-4.81-.54-10.67-.08-15.88-.23-.57,15-.08,31.11-.24,46.54h-9.37c-8.09-1.58-5.78-13.53-5.78-23V128c0-5.53-1.13-13.83.23-18.28,1.64-5.32,8.75-4.52,15.88-4.52h34.87v31.59h16.11c.15-10.45-.31-21.53.23-31.59,7.78-.46,14.94-.35,15.41,6.41M49.43,136.09a10.59,10.59,0,0,1,11.06,14.5c-4.14,11.13-23.91,6.95-20.2-7.13,1-3.89,4-6.8,9.14-7.37M154,187.87H136.72c.15-6.09-.31-12.83.23-18.53H154v18.53m34.18-18.51v12.1a7.89,7.89,0,0,1-5.76,6.41H170.18c.15-6.09-.32-12.83.23-18.51H188.2" transform="translate(-9.26 -8.81)" style="fill:#fff"/></svg>