<?xml version="1.0" encoding="utf-8"?>
<!-- Generator: Adobe Illustrator 22.1.0, SVG Export Plug-In . SVG Version: 6.00 Build 0)  -->
<svg version="1.1" id="图层_1" xmlns="http://www.w3.org/2000/svg" xmlns:xlink="http://www.w3.org/1999/xlink" x="0px" y="0px"
	 viewBox="0 0 200 200" style="enable-background:new 0 0 200 200;" xml:space="preserve">
<path d="M172.1,138.6c-9.4,0-17-7.6-17.1-17.1v-34c0-9.4,7.6-17,17.1-17c15.4,0,27.8,12.5,27.9,27.8v12.3
	C200,126.1,187.5,138.6,172.1,138.6z M172.1,83.1c-2.5,0-4.5,2-4.6,4.6v34c0,2.5,2,4.6,4.6,4.6c8.5,0,15.4-6.9,15.4-15.4V98.4
	C187.5,89.9,180.6,83.1,172.1,83.1z M27.9,138.6C12.5,138.6,0,126.1,0,110.7V98.4C0,83,12.5,70.5,27.9,70.5c9.4,0,17,7.7,17,17.1
	v33.9C44.9,130.9,37.3,138.6,27.9,138.6L27.9,138.6z M27.9,83.1c-8.5,0-15.3,6.9-15.4,15.3v12.3c0,8.5,6.9,15.4,15.4,15.4
	c2.5,0,4.6-2,4.6-4.6l0,0v-34C32.4,85.1,30.4,83.1,27.9,83.1z"/>
<path d="M38.7,92.3c-3.5,0-6.3-2.8-6.3-6.3v-6.6C32.4,43.9,60.5,15,95.1,15h8.6c35.3,0,63.9,28.6,63.9,63.9v6.6
	c0,3.5-2.8,6.3-6.3,6.3s-6.3-2.8-6.3-6.3v-6.6c0-28.4-23-51.4-51.4-51.4h-8.6c-27.7,0-50.2,23.3-50.2,52V86
	C44.9,89.5,42.1,92.3,38.7,92.3C38.7,92.3,38.7,92.3,38.7,92.3z M117.8,175.6h-2.1c-3.5,0-6.3-2.8-6.3-6.3s2.8-6.3,6.3-6.3h2.1
	c20.6,0,37.3-20.8,37.3-46.4v-4.3c0-3.5,2.8-6.3,6.3-6.3s6.3,2.8,6.3,6.3v4.3C167.6,149.2,145.2,175.6,117.8,175.6L117.8,175.6z"/>
<path d="M106.8,169.4c0,5.2,4.2,9.4,9.4,9.4c5.2,0,9.4-4.2,9.4-9.4c0-5.2-4.2-9.4-9.4-9.4C111,160,106.8,164.2,106.8,169.4z"/>
</svg>
