<?xml version="1.0" encoding="utf-8"?>
<!-- Generator: Adobe Illustrator 22.1.0, SVG Export Plug-In . SVG Version: 6.00 Build 0)  -->
<svg version="1.1" id="图层_1" xmlns="http://www.w3.org/2000/svg" xmlns:xlink="http://www.w3.org/1999/xlink" x="0px" y="0px"
	 viewBox="0 0 1024 768" style="enable-background:new 0 0 1024 768;" xml:space="preserve">
<g>
	<g>
		<defs>
			<rect id="SVGID_1_" x="178" y="60" width="666.9" height="649.9"/>
		</defs>
		<clipPath id="SVGID_2_">
			<use xlink:href="#SVGID_1_"  style="overflow:visible;"/>
		</clipPath>
		<path style="clip-path:url(#SVGID_2_);" d="M822.3,448.4c-12.1,0-20.2,8.1-20.2,20.2v151.5c0,26.3-22.2,48.5-48.5,48.5H266.8
			c-26.3,0-48.5-22.2-48.5-48.5V195.9c0-26.3,22.2-48.5,48.5-48.5h155.5c12.1,0,20.2-8.1,20.2-20.2c0-12.1-8.1-20.2-20.2-20.2H266.8
			c-48.5,0-88.9,40.4-88.9,88.9v424.2c0,48.5,40.4,88.9,88.9,88.9h488.8c48.5,0,88.9-40.4,88.9-88.9V468.6
			C842.4,456.5,834.4,448.4,822.3,448.4L822.3,448.4z M822.3,448.4"/>
		<path style="clip-path:url(#SVGID_2_);" d="M707.1,66.6c-8.1-8.1-20.2-8.1-28.3,0c-8.1,8.1-8.1,20.2,0,28.3l99,99H670.8
			c-198,24.2-248.5,151.5-260.6,333.3c0,12.1,8.1,20.2,18.2,22.2h2c10.1,0,20.2-8.1,20.2-18.2c12.1-171.7,54.5-274.7,224.2-296.9
			h111.1l-99,99c-8.1,8.1-8.1,20.2,0,28.3c4,4,10.1,6.1,14.1,6.1c4,0,10.1-2,14.1-6.1l115.1-115.1c8.1-8.1,12.1-18.2,12.1-28.3
			c0-10.1-4-20.2-12.1-28.3L707.1,66.6z M707.1,66.6"/>
	</g>
</g>
</svg>
