<?xml version="1.0" encoding="utf-8"?>
<!-- Generator: Adobe Illustrator 22.1.0, SVG Export Plug-In . SVG Version: 6.00 Build 0)  -->
<svg version="1.1" id="图层_1" xmlns="http://www.w3.org/2000/svg" xmlns:xlink="http://www.w3.org/1999/xlink" x="0px" y="0px"
	 viewBox="0 0 200 200" style="enable-background:new 0 0 200 200;" xml:space="preserve">
<path d="M156.5,84.6H43.2c-9.7,0-17.6-7.9-17.6-17.6V43.5c0-9.7,7.9-17.6,17.6-17.6h113.3c9.7,0,17.6,7.9,17.6,17.6V67
	C174.1,76.7,166.2,84.6,156.5,84.6z M43.2,37.7c-3.2,0-5.9,2.6-5.9,5.9V67c0,3.2,2.6,5.9,5.9,5.9h113.3c3.2,0,5.9-2.6,5.9-5.9V43.5
	c0-3.2-2.6-5.9-5.9-5.9H43.2z M160.4,104.6c-3.2,0-5.9-2.6-5.9-5.9V80.2c0-3.2,2.6-5.9,5.9-5.9c3.2,0,5.9,2.6,5.9,5.9v18.6
	C166.3,102,163.7,104.6,160.4,104.6z M94.7,173.4H51.1c-9.7,0-17.6-7.9-17.6-17.6V79.9c0-3.2,2.6-5.9,5.9-5.9c3.2,0,5.9,2.6,5.9,5.9
	v75.9c0,3.2,2.6,5.9,5.9,5.9h43.6c3.2,0,5.9,2.6,5.9,5.9S97.9,173.4,94.7,173.4z M137,176.4c-19.9,0-36.1-16.2-36.1-36.1
	s16.2-36.1,36.1-36.1s36.1,16.2,36.1,36.1S156.9,176.4,137,176.4L137,176.4z M137,114.1c-14.5,0-26.3,11.8-26.3,26.3
	s11.8,26.3,26.3,26.3c14.5,0,26.3-11.8,26.3-26.3S151.5,114.1,137,114.1L137,114.1z M132.5,158.3c-1.2,0-2.4-0.4-3.3-1.3l-11-10.2
	c-2-1.8-2.1-4.9-0.3-6.9c1.8-2,4.9-2.1,6.9-0.3l11,10.2c2,1.8,2.1,4.9,0.3,6.9C135.1,157.8,133.8,158.3,132.5,158.3L132.5,158.3z
	 M133,158.1c-1.2,0-2.4-0.4-3.3-1.3c-2-1.8-2.1-4.9-0.2-6.9l20.7-22.2c1.8-2,4.9-2.1,6.9-0.2c2,1.8,2.1,4.9,0.2,6.9l-20.7,22.2
	C135.6,157.6,134.4,158.1,133,158.1z"/>
</svg>
