<svg id="图层_1" data-name="图层 1" xmlns="http://www.w3.org/2000/svg" viewBox="0 0 173.89 158.84"><title>shipping</title><path d="M186.94,33a12.5,12.5,0,0,0-12.5-12.46H76.64A12.51,12.51,0,0,0,64.13,33V53.69a.8.8,0,0,1-.45.76L29.17,72.6A29.73,29.73,0,0,0,13.06,98.73v62.51H39.2v0h.24a23.18,23.18,0,0,0,45.25,0H85s0,0,0,0h29.35v0h1.06a23.19,23.19,0,0,0,45.28,0h26.26V33ZM62.06,168.57a12.38,12.38,0,1,1,12.38-12.38A12.4,12.4,0,0,1,62.06,168.57Zm76,0a12.38,12.38,0,1,1,12.38-12.38A12.4,12.4,0,0,1,138,168.57Zm38.05-18.18H160.45a23.13,23.13,0,0,0-44.83,0H84.48a23.13,23.13,0,0,0-44.83,0H23.91V98.73A18.81,18.81,0,0,1,34.22,82.2l34.32-18A11.61,11.61,0,0,0,75,53.69V33a1.67,1.67,0,0,1,1.66-1.61h97.8A1.66,1.66,0,0,1,176.09,33Z" transform="translate(-13.06 -20.58)"/><path d="M72.75,74.71a5.42,5.42,0,0,0-5.43,5.42v27.13H40.19a5.43,5.43,0,0,0,0,10.86H72.75a5.42,5.42,0,0,0,5.42-5.43V80.13A5.41,5.41,0,0,0,72.75,74.71Z" transform="translate(-13.06 -20.58)"/></svg>